<svg width="71" height="61" viewBox="0 0 71 61" fill="none" xmlns="http://www.w3.org/2000/svg">
<mask id="path-1-outside-1" maskUnits="userSpaceOnUse" x="0" y="0" width="71" height="61" fill="black">
<rect fill="white" width="71" height="61"/>
<path fill-rule="evenodd" clip-rule="evenodd" d="M40.5063 59.7158C56.7202 59.7158 69.8641 46.5718 69.8641 30.3579C69.8641 14.144 56.7202 1 40.5063 1C37.1326 1 33.7315 1.00023 30.3579 1.00023C14.144 1.00023 1 14.1442 1 30.3581C1 46.572 14.144 59.716 30.3579 59.716C33.7316 59.716 37.1326 59.7158 40.5063 59.7158Z"/>
</mask>
<path fill-rule="evenodd" clip-rule="evenodd" d="M40.5063 59.7158C56.7202 59.7158 69.8641 46.5718 69.8641 30.3579C69.8641 14.144 56.7202 1 40.5063 1C37.1326 1 33.7315 1.00023 30.3579 1.00023C14.144 1.00023 1 14.1442 1 30.3581C1 46.572 14.144 59.716 30.3579 59.716C33.7316 59.716 37.1326 59.7158 40.5063 59.7158Z" fill="#2B3FF7"/>
<path d="M68.8641 30.3579C68.8641 46.0195 56.1679 58.7158 40.5063 58.7158V60.7158C57.2725 60.7158 70.8641 47.1241 70.8641 30.3579H68.8641ZM40.5063 2C56.1679 2 68.8641 14.6963 68.8641 30.3579H70.8641C70.8641 13.5917 57.2725 0 40.5063 0V2ZM2 30.3581C2 14.6965 14.6963 2.00023 30.3579 2.00023V0.000228703C13.5917 0.000228703 0 13.5919 0 30.3581H2ZM30.3579 58.716C14.6963 58.716 2 46.0197 2 30.3581H0C0 47.1243 13.5917 60.716 30.3579 60.716V58.716ZM30.3579 60.716C32.0447 60.716 33.7384 60.7159 35.4321 60.7159C37.1258 60.7158 38.8194 60.7158 40.5063 60.7158V58.7158C38.8194 58.7158 37.1257 58.7158 35.432 58.7159C33.7384 58.7159 32.0447 58.716 30.3579 58.716V60.716ZM40.5063 0C38.8194 0 37.1257 5.71609e-05 35.432 0.000114381C33.7384 0.000171542 32.0447 0.000228703 30.3579 0.000228703V2.00023C32.0447 2.00023 33.7384 2.00017 35.4321 2.00011C37.1258 2.00006 38.8194 2 40.5063 2V0Z" fill="#2B3FF7" mask="url(#path-1-outside-1)"/>
<circle cx="30.3579" cy="30.3579" r="29.8579" fill="#50B6F9" stroke="#2B3FF7"/>
<path d="M15.2729 26.3711C15.2729 23.0442 17.97 20.3472 21.2969 20.3472H39.4191C42.746 20.3472 45.443 23.0442 45.443 26.3711C45.443 29.6981 42.746 32.3951 39.4191 32.3951H39.0763C36.4203 32.3951 33.9699 33.8248 32.663 36.137L30.342 40.2434L27.6772 35.8655C26.3654 33.7104 24.025 32.3951 21.5021 32.3951H21.2969C17.97 32.3951 15.2729 29.6981 15.2729 26.3711Z" fill="white" stroke="#2B3FF7"/>
</svg>
