<svg xmlns="http://www.w3.org/2000/svg" width="221" height="40" viewBox="0 0 221 40"><g><g><path fill="#ac54f1" d="M101 0h120v39H101z"/></g><g><path fill="#fff" d="M25.403 18.996v.143c-.61 1.66-.916 3.444-.916 5.351 0 1.513.192 2.948.576 4.305a11.962 11.962 0 0 1-.824 2.342 13.62 13.62 0 0 1-3.165 4.195 14.912 14.912 0 0 1-4.537 2.836 14.777 14.777 0 0 1-5.433 1.005H0v-9.306h7.194v2.186h3.91c.995 0 1.92-.177 2.776-.532a8.199 8.199 0 0 0 2.27-1.536 6.822 6.822 0 0 0 1.492-2.215 6.717 6.717 0 0 0 .477-1.655H0v-3.102c0-1.851.388-3.574 1.164-5.17a14.151 14.151 0 0 1 3.164-4.224 14.834 14.834 0 0 1 4.567-2.807c1.652-.689 3.453-1.034 5.403-1.034h11.105v7.12H14.298c-.955 0-1.88.177-2.776.532l-.597.295a4.92 4.92 0 0 0-.418.266c-.139.099-.248.177-.328.237-.08.059-.219.177-.418.354-.199.158-.368.295-.507.414zm0 .143c.757-2.06 1.984-3.93 3.68-5.609 3.066-3.033 6.757-4.55 11.076-4.55 4.318 0 8.01 1.517 11.074 4.55 3.065 3.033 4.597 6.687 4.597 10.96 0 4.274-1.532 7.928-4.597 10.96C48.168 38.485 44.477 40 40.159 40c-4.319 0-8.01-1.516-11.075-4.55-1.98-1.959-3.32-4.177-4.021-6.655.206-.862.32-1.755.34-2.68zm20.755-.587c-1.691-1.634-3.691-2.452-6-2.452-2.308 0-4.308.818-6 2.452-1.651 1.674-2.477 3.654-2.477 5.938 0 2.285.826 4.264 2.478 5.938 1.691 1.635 3.691 2.452 6 2.452 2.308 0 4.308-.817 6-2.452 1.651-1.674 2.477-3.653 2.477-5.938 0-2.284-.826-4.264-2.478-5.938zM66.168 7.12c-.538 0-.975.187-1.314.56-.378.336-.567.769-.567 1.3v.828h1.293v7.12h-1.293v22.245h-7.194V16.928h-2.209v-7.12h2.21v-.827c0-2.482.885-4.599 2.656-6.352C61.521.876 63.66 0 66.168 0c.552 0 1.082.047 1.591.142v2.232l-1.263 4.775h-.15a.824.824 0 0 0-.178-.03zM67.759.142V0h7.224v9.808h2.21v7.12h-2.21v22.245H67.76V16.928h-1.263v-7.12h1.264V2.374l.557-2.108a7.827 7.827 0 0 0-.557-.124zm33.114 21.749h-.05V0h7.194v9.808h18.189v7.12h.02v9.187c-.04 1.792-.428 3.467-1.164 5.022-.836 1.655-1.891 3.053-3.164 4.195a14.741 14.741 0 0 1-4.568 2.836c-1.671.67-3.472 1.005-5.403 1.005h-11.104V28.035h.05zm-23.701 6.144v-6.144h23.651v6.144zm41.86-11.107h-11.015v15.125h3.91a7.48 7.48 0 0 0 2.777-.532 7.265 7.265 0 0 0 2.238-1.536 6.228 6.228 0 0 0 1.523-2.215 6.136 6.136 0 0 0 .567-2.482zm7.194 0v-7.12h28.884v7.12h.233c-.14.39-.3.774-.481 1.152-.836 1.654-1.89 3.052-3.164 4.195a14.737 14.737 0 0 1-4.567 2.836c-1.672.67-3.473 1.004-5.403 1.004h-3.821c.099.571.259 1.113.478 1.625a6.522 6.522 0 0 0 1.522 2.245c.617.61 1.363 1.123 2.239 1.536a7.476 7.476 0 0 0 2.776.532h8.895v7.12h-8.895c-1.95 0-3.751-.345-5.403-1.034a14.823 14.823 0 0 1-4.567-2.807 14.138 14.138 0 0 1-3.164-4.224c-.737-1.536-1.125-3.2-1.165-4.993h-2.209v-7.12h2.209v-2.067zm29.8-7.12h26.676v7.12h-2.189v22.245h-11.104c-1.931 0-3.732-.335-5.403-1.005a14.725 14.725 0 0 1-4.567-2.836c-1.274-1.142-2.329-2.54-3.164-4.195a12.088 12.088 0 0 1-1.165-5.199v-6.942h18.209v-2.068h-17.976c.455-1.28.683-2.63.683-4.048zm26.696 0v7.12h-.02v22.245h7.194v-15.48c.02-.847.199-1.674.537-2.482a7.63 7.63 0 0 1 1.522-2.245 7.03 7.03 0 0 1 2.269-1.477c.836-.374 1.761-.561 2.776-.561h1.254v22.245h7.194v-15.48c.02-.847.199-1.674.537-2.482a7.614 7.614 0 0 1 1.523-2.245 7.015 7.015 0 0 1 2.268-1.477c.836-.374 1.761-.561 2.776-.561h1.254v22.245H221V9.778l-9.373.03c-1.871 0-3.622.384-5.254 1.152a13.8 13.8 0 0 0-.925.502V9.778l-9.373.03c-1.871 0-3.622.384-5.254 1.152a13.8 13.8 0 0 0-.925.502V9.778h-7.194v.03zm-38.218 8.656a7.258 7.258 0 0 0 2.239-1.536h-8.926v2.068h3.911a7.48 7.48 0 0 0 2.776-.532zm28.815 13.59v-5.939h-10.925c.099.61.259 1.162.478 1.655a6.8 6.8 0 0 0 1.522 2.215 7.258 7.258 0 0 0 2.239 1.536 7.476 7.476 0 0 0 2.776.532z"/></g></g></svg>