<svg width="931" height="931" viewBox="0 0 931 931" fill="none" xmlns="http://www.w3.org/2000/svg">
<line x1="57.4292" y1="2.18557e-08" x2="57.4292" y2="931" stroke="white" stroke-opacity="0.3"/>
<line x1="330.113" y1="2.18557e-08" x2="330.113" y2="931" stroke="white" stroke-opacity="0.3"/>
<line x1="670.745" y1="2.18557e-08" x2="670.745" y2="931" stroke="white" stroke-opacity="0.3"/>
<line x1="193.314" y1="2.18557e-08" x2="193.314" y2="931" stroke="white" stroke-opacity="0.3"/>
<line x1="466" y1="2.18557e-08" x2="466" y2="931" stroke="white" stroke-opacity="0.3"/>
<line x1="806.631" y1="2.18557e-08" x2="806.631" y2="931" stroke="white" stroke-opacity="0.3"/>
<line x1="125.369" y1="2.18557e-08" x2="125.369" y2="931" stroke="white" stroke-opacity="0.3"/>
<line x1="398.055" y1="2.18557e-08" x2="398.055" y2="931" stroke="white" stroke-opacity="0.3"/>
<line x1="738.686" y1="2.18557e-08" x2="738.685" y2="931" stroke="white" stroke-opacity="0.3"/>
<line x1="261.255" y1="2.18557e-08" x2="261.255" y2="931" stroke="white" stroke-opacity="0.3"/>
<line x1="601.887" y1="2.18557e-08" x2="601.887" y2="931" stroke="white" stroke-opacity="0.3"/>
<line x1="533.945" y1="2.18557e-08" x2="533.945" y2="931" stroke="white" stroke-opacity="0.3"/>
<line x1="874.571" y1="2.18557e-08" x2="874.571" y2="931" stroke="white" stroke-opacity="0.3"/>
<line y1="873.575" x2="931" y2="873.575" stroke="white" stroke-opacity="0.3"/>
<line y1="600.886" x2="931" y2="600.886" stroke="white" stroke-opacity="0.3"/>
<line y1="260.253" x2="931" y2="260.253" stroke="white" stroke-opacity="0.3"/>
<line y1="737.69" x2="931" y2="737.69" stroke="white" stroke-opacity="0.3"/>
<line y1="465" x2="931" y2="465" stroke="white" stroke-opacity="0.3"/>
<line y1="124.367" x2="931" y2="124.367" stroke="white" stroke-opacity="0.3"/>
<line y1="805.633" x2="931" y2="805.633" stroke="white" stroke-opacity="0.3"/>
<line y1="532.943" x2="931" y2="532.943" stroke="white" stroke-opacity="0.3"/>
<line y1="192.31" x2="931" y2="192.31" stroke="white" stroke-opacity="0.3"/>
<line y1="669.747" x2="931" y2="669.747" stroke="white" stroke-opacity="0.3"/>
<line y1="329.114" x2="931" y2="329.114" stroke="white" stroke-opacity="0.3"/>
<line y1="397.057" x2="931" y2="397.057" stroke="white" stroke-opacity="0.3"/>
<line y1="56.4253" x2="931" y2="56.4253" stroke="white" stroke-opacity="0.3"/>
</svg>
