<svg xmlns="http://www.w3.org/2000/svg" width="381" height="353" viewBox="0 0 381 353"><defs><clipPath id="8bcsa"><path fill="#fff" d="M0 61.07h301.706v204.096H0z"/></clipPath><clipPath id="8bcsb"><path fill="#fff" d="M0 .19h115.358c34.306 0 62.116 27.81 62.116 62.116H0z"/></clipPath><clipPath id="8bcsc"><path fill="#fff" d="M78.92 148.9h301.706v204.096H78.92z"/></clipPath><clipPath id="8bcsd"><path fill="#fff" d="M78.92 88.02h115.358c34.306 0 62.116 27.81 62.116 62.116H78.92z"/></clipPath></defs><g><g><g><g><path fill="#00b082" d="M0 61.07h301.706v204.096H0z"/><path fill="none" stroke="#000" stroke-miterlimit="20" stroke-width="2" d="M0 61.07v0h301.706v204.096H0v0z" clip-path="url(&quot;#8bcsa&quot;)"/></g><g><path fill="#00b082" d="M0 .19h115.358c34.306 0 62.116 27.81 62.116 62.116H0z"/><path fill="none" stroke="#000" stroke-miterlimit="20" stroke-width="2" d="M0 .19v0h115.358c34.306 0 62.116 27.81 62.116 62.116v0H0v0z" clip-path="url(&quot;#8bcsb&quot;)"/></g></g><g><g><path fill="#f5e901" d="M78.92 148.9h301.706v204.096H78.92z"/><path fill="none" stroke="#000" stroke-miterlimit="20" stroke-width="2" d="M78.92 148.9v0h301.706v204.096H78.92v0z" clip-path="url(&quot;#8bcsc&quot;)"/></g><g><path fill="#f5e901" d="M78.92 88.02h115.358c34.306 0 62.116 27.81 62.116 62.116H78.92z"/><path fill="none" stroke="#000" stroke-miterlimit="20" stroke-width="2" d="M78.92 88.02v0h115.358c34.306 0 62.116 27.81 62.116 62.116v0H78.92v0z" clip-path="url(&quot;#8bcsd&quot;)"/></g></g></g></g></svg>