<svg xmlns="http://www.w3.org/2000/svg" width="160" height="259" viewBox="0 0 160 259"><g><g><path fill="#00004b" d="M1.29 28.25L19.643.72 152.7 136.073l-11.47 27.529-13.765 4.588 25.235 50.471-18.353 27.529-27.529 11.471-32.117-61.942-39 20.647z"/><path fill="none" stroke="#000" stroke-miterlimit="20" d="M1.29 28.25v0L19.643.72v0L152.7 136.073v0l-11.47 27.529v0l-13.765 4.588v0l25.235 50.471v0l-18.353 27.529v0l-27.529 11.471v0l-32.117-61.942v0l-39 20.647v0z"/></g><g><path fill="#03b8ff" d="M56.346 191.131L19.64.72l139.941 135.353-39 18.352 32.117 64.236-25.235 13.764-32.117-61.941z"/><path fill="none" stroke="#000" stroke-miterlimit="20" d="M56.346 191.131v0L19.64.72v0l139.941 135.353v0l-39 18.352v0l32.117 64.236v0l-25.235 13.764v0l-32.117-61.941v0z"/></g></g></svg>