<svg xmlns="http://www.w3.org/2000/svg" width="545" height="334" viewBox="0 0 545 334"><defs><clipPath id="hwcwa"><path fill="#fff" d="M0 0h544.078v334H0z"/></clipPath><clipPath id="hwcwb"><path fill="#fff" d="M8.26 42.49h282.071v282.071H8.26z"/></clipPath><clipPath id="hwcwc"><path fill="#fff" d="M299.77 42.49h234.862v282.071H299.77z"/></clipPath><clipPath id="hwcwd"><path fill="#fff" d="M149 61l4.686 80.27 65.679-46.384-59.836 53.71 77.215 22.431-79.3-13.293 30.606 74.353L149 161.8l-39.05 70.287 30.606-74.353-79.3 13.293 77.215-22.43-59.836-53.711 65.68 46.383z"/></clipPath><clipPath id="hwcwe"><path fill="#fff" d="M0 0h36.587v35.406H0z"/></clipPath><clipPath id="hwcwf"><path fill="#fff" d="M35.41 0h508.671v35.406H35.41z"/></clipPath><clipPath id="hwcwg"><path fill="#fff" d="M527.552 17.7a4.72 4.72 0 1 1-9.442 0 4.72 4.72 0 0 1 9.442 0z"/></clipPath><clipPath id="hwcwh"><path fill="#fff" d="M505.132 17.7a4.72 4.72 0 1 1-9.442 0 4.72 4.72 0 0 1 9.442 0z"/></clipPath><clipPath id="hwcwi"><path fill="#fff" d="M482.702 17.7a4.72 4.72 0 1 1-9.442 0 4.72 4.72 0 0 1 9.442 0z"/></clipPath><clipPath id="hwcwj"><path fill="#fff" d="M489.786 184.113c0 39.761-32.232 71.993-71.993 71.993-39.76 0-71.993-32.232-71.993-71.993 0-39.76 32.232-71.993 71.993-71.993 39.761 0 71.993 32.232 71.993 71.993z"/></clipPath></defs><g><g><g><path fill="#fceee1" d="M0 0h544.078v334H0z"/><path fill="none" stroke="#000" stroke-miterlimit="20" stroke-width="2" d="M0 0v0h544.078v334H0v0z" clip-path="url(&quot;#hwcwa&quot;)"/></g><g><path fill="#f85aff" d="M8.26 42.49h282.071v282.071H8.26z"/><path fill="none" stroke="#000" stroke-miterlimit="20" stroke-width="2" d="M8.26 42.49v0h282.071v282.071H8.26v0z" clip-path="url(&quot;#hwcwb&quot;)"/></g><g><path fill="#f5e901" d="M299.77 42.49h234.862v282.071H299.77z"/><path fill="none" stroke="#000" stroke-miterlimit="20" stroke-width="2" d="M299.77 42.49v0h234.862v282.071H299.77v0z" clip-path="url(&quot;#hwcwc&quot;)"/></g><g><path fill="#f5e901" d="M149 61l4.686 80.27 65.679-46.384-59.836 53.71 77.215 22.431-79.3-13.293 30.606 74.353L149 161.8l-39.05 70.287 30.606-74.353-79.3 13.293 77.215-22.43-59.836-53.711 65.68 46.383z"/><path fill="none" stroke="#000" stroke-miterlimit="20" stroke-width="2" d="M149 61v0l4.686 80.27v0l65.679-46.384v0l-59.836 53.71v0l77.215 22.431v0l-79.3-13.293v0l30.606 74.353v0L149 161.8v0l-39.05 70.287v0l30.606-74.353v0l-79.3 13.293v0l77.215-22.43v0L78.635 94.886v0l65.68 46.383v0z" clip-path="url(&quot;#hwcwd&quot;)"/></g><g><g transform="rotate(135 18 18)"/><g/></g><g><path fill="none" stroke="#000" stroke-miterlimit="20" stroke-width="2" d="M0 0v0h36.587v35.406H0v0z" clip-path="url(&quot;#hwcwe&quot;)"/></g><g><path fill="none" stroke="#000" stroke-miterlimit="20" stroke-width="2" d="M35.41 0v0h508.671v35.406H35.41v0z" clip-path="url(&quot;#hwcwf&quot;)"/></g><g><g><path fill="#76ce57" d="M527.552 17.7a4.72 4.72 0 1 1-9.442 0 4.72 4.72 0 0 1 9.442 0z"/><path fill="none" stroke="#000" stroke-miterlimit="20" stroke-width="2" d="M527.552 17.7a4.72 4.72 0 1 1-9.442 0 4.72 4.72 0 0 1 9.442 0z" clip-path="url(&quot;#hwcwg&quot;)"/></g><g><path fill="#f5e901" d="M505.132 17.7a4.72 4.72 0 1 1-9.442 0 4.72 4.72 0 0 1 9.442 0z"/><path fill="none" stroke="#000" stroke-miterlimit="20" stroke-width="2" d="M505.132 17.7a4.72 4.72 0 1 1-9.442 0 4.72 4.72 0 0 1 9.442 0z" clip-path="url(&quot;#hwcwh&quot;)"/></g><g><path fill="#ff3f3f" d="M482.702 17.7a4.72 4.72 0 1 1-9.442 0 4.72 4.72 0 0 1 9.442 0z"/><path fill="none" stroke="#000" stroke-miterlimit="20" stroke-width="2" d="M482.702 17.7a4.72 4.72 0 1 1-9.442 0 4.72 4.72 0 0 1 9.442 0z" clip-path="url(&quot;#hwcwi&quot;)"/></g></g><g><path fill="#ef789e" d="M489.786 184.113c0 39.761-32.232 71.993-71.993 71.993-39.76 0-71.993-32.232-71.993-71.993 0-39.76 32.232-71.993 71.993-71.993 39.761 0 71.993 32.232 71.993 71.993z"/><path fill="none" stroke="#000" stroke-miterlimit="20" stroke-width="2" d="M489.786 184.113c0 39.761-32.232 71.993-71.993 71.993-39.76 0-71.993-32.232-71.993-71.993 0-39.76 32.232-71.993 71.993-71.993 39.761 0 71.993 32.232 71.993 71.993z" clip-path="url(&quot;#hwcwj&quot;)"/></g><g><g><path fill="#00004b" d="M413.07 234.861l4.72-7.081 34.227 34.816-2.95 7.081-3.541 1.18 6.491 12.983-4.72 7.081-7.082 2.95-8.262-15.932-10.031 5.311z"/><path fill="none" stroke="#000" stroke-miterlimit="20" d="M413.07 234.861v0l4.72-7.081v0l34.227 34.816v0l-2.95 7.081v0l-3.541 1.18v0l6.491 12.983v0l-4.72 7.081v0l-7.082 2.95v0l-8.262-15.932v0l-10.031 5.311v0z"/></g><g><path fill="#03b8ff" d="M427.232 276.759l-9.442-48.979 35.996 34.816-10.031 4.721 8.261 16.523-6.491 3.54-8.262-15.932z"/><path fill="none" stroke="#000" stroke-miterlimit="20" d="M427.232 276.759v0l-9.442-48.979v0l35.996 34.816v0l-10.031 4.721v0l8.261 16.523v0l-6.491 3.54v0l-8.262-15.932v0z"/></g></g></g></g></svg>