<svg xmlns="http://www.w3.org/2000/svg" width="552" height="355" viewBox="0 0 552 355"><defs><clipPath id="ap8ua"><path fill="#fff" d="M35 118h456.802v203.247H35z"/></clipPath><clipPath id="ap8ub"><path fill="#fff" d="M53.11 138.12h418.568v154.951H53.11z"/></clipPath><clipPath id="ap8uc"><path fill="#fff" d="M87.32 164.28h342.099v102.63H87.32z"/></clipPath><clipPath id="ap8ud"><path fill="#fff" d="M149.705 215.603c0 8.335-6.757 15.092-15.092 15.092-8.336 0-15.093-6.757-15.093-15.092 0-8.336 6.757-15.093 15.093-15.093 8.335 0 15.092 6.757 15.092 15.093z"/></clipPath><clipPath id="ap8ue"><path fill="#fff" d="M11 95h504v250H11z"/></clipPath><clipPath id="ap8uf"><path fill="#fff" d="M504 84h21v21h-21z"/></clipPath><clipPath id="ap8ug"><path fill="#fff" d="M504 334h21v21h-21z"/></clipPath><clipPath id="ap8uh"><path fill="#fff" d="M0 334h21v21H0z"/></clipPath><clipPath id="ap8ui"><path fill="#fff" d="M0 84h21v21H0z"/></clipPath><clipPath id="ap8uj"><path fill="#fff" d="M519 94.5a4.5 4.5 0 1 1-9 0 4.5 4.5 0 0 1 9 0z"/></clipPath><clipPath id="ap8uk"><path fill="#fff" d="M519 344.5a4.5 4.5 0 1 1-9 0 4.5 4.5 0 0 1 9 0z"/></clipPath><clipPath id="ap8ul"><path fill="#fff" d="M15 344.5a4.5 4.5 0 1 1-9 0 4.5 4.5 0 0 1 9 0z"/></clipPath><clipPath id="ap8um"><path fill="#fff" d="M15 94.5a4.5 4.5 0 1 1-9 0 4.5 4.5 0 0 1 9 0z"/></clipPath><clipPath id="ap8un"><path fill="#fff" d="M465 140V30h87v110zm85.999-1.826V55.221L527.228 31.52H466.48v106.654z"/></clipPath><clipPath id="ap8uo"><path fill="#fff" d="M399 158V48h87v110zm85.589-1.716V73.331L460.817 49.63H400.07v106.654z"/></clipPath><clipPath id="ap8up"><path fill="#fff" d="M435 212V103h87v109zm85.818-1.376v-82.953l-23.77-23.701H436.3v106.654z"/></clipPath><clipPath id="ap8uq"><path fill="#fff" d="M351.5 0l4.842 19.615a11 11 0 0 0 8.043 8.043L384 32.5l-19.615 4.842a11 11 0 0 0-8.043 8.043L351.5 65l-4.842-19.615a11 11 0 0 0-8.043-8.043L319 32.5l19.615-4.842a11 11 0 0 0 8.043-8.043z"/></clipPath><clipPath id="ap8ur"><path fill="#fff" d="M373.5 62l2.07 8.387a11 11 0 0 0 8.043 8.043L392 80.5l-8.387 2.07a11 11 0 0 0-8.043 8.043L373.5 99l-2.07-8.387a11 11 0 0 0-8.043-8.043L355 80.5l8.387-2.07a11 11 0 0 0 8.043-8.043z"/></clipPath></defs><g><g><g><g><g><path fill="#03b8ff" d="M35 118h456.802v203.247H35z"/><path fill="none" stroke="#000" stroke-miterlimit="20" stroke-width="2" d="M35 118v0h456.802v203.247H35v0z" clip-path="url(&quot;#ap8ua&quot;)"/></g><g><path fill="#fceee1" d="M53.11 138.12h418.568v154.951H53.11z"/><path fill="none" stroke="#000" stroke-miterlimit="20" stroke-width="2" d="M53.11 138.12v0h418.568v154.951H53.11v0z" clip-path="url(&quot;#ap8ub&quot;)"/></g><g><path fill="#fceee1" d="M87.32 164.28h342.099v102.63H87.32z"/><path fill="none" stroke="#000" stroke-miterlimit="20" stroke-width="2" d="M87.32 164.28v0h342.099v102.63H87.32v0z" clip-path="url(&quot;#ap8uc&quot;)"/></g><g/><g transform="rotate(180 159 254.5)"/><g/><g/><g transform="rotate(90 262 216)"/><g transform="rotate(135 265 214.5)"/><g/><g><path fill="#f85aff" d="M149.705 215.603c0 8.335-6.757 15.092-15.092 15.092-8.336 0-15.093-6.757-15.093-15.092 0-8.336 6.757-15.093 15.093-15.093 8.335 0 15.092 6.757 15.092 15.093z"/><path fill="none" stroke="#000" stroke-miterlimit="20" stroke-width="2" d="M149.705 215.603c0 8.335-6.757 15.092-15.092 15.092-8.336 0-15.093-6.757-15.093-15.092 0-8.336 6.757-15.093 15.093-15.093 8.335 0 15.092 6.757 15.092 15.093z" clip-path="url(&quot;#ap8ud&quot;)"/></g></g><g><path fill="none" stroke="#000" stroke-miterlimit="20" stroke-width="2" d="M11 95v0h504v250H11v0z" clip-path="url(&quot;#ap8ue&quot;)"/></g><g><path fill="#fceee1" d="M504 84h21v21h-21z"/><path fill="none" stroke="#000" stroke-miterlimit="20" stroke-width="2" d="M504 84v0h21v21h-21v0z" clip-path="url(&quot;#ap8uf&quot;)"/></g><g><path fill="#fceee1" d="M504 334h21v21h-21z"/><path fill="none" stroke="#000" stroke-miterlimit="20" stroke-width="2" d="M504 334v0h21v21h-21v0z" clip-path="url(&quot;#ap8ug&quot;)"/></g><g><path fill="#fceee1" d="M0 334h21v21H0z"/><path fill="none" stroke="#000" stroke-miterlimit="20" stroke-width="2" d="M0 334v0h21v21H0v0z" clip-path="url(&quot;#ap8uh&quot;)"/></g><g><path fill="#fceee1" d="M0 84h21v21H0z"/><path fill="none" stroke="#000" stroke-miterlimit="20" stroke-width="2" d="M0 84v0h21v21H0v0z" clip-path="url(&quot;#ap8ui&quot;)"/></g><g><path fill="#ff3f3f" d="M519 94.5a4.5 4.5 0 1 1-9 0 4.5 4.5 0 0 1 9 0z"/><path fill="none" stroke="#000" stroke-miterlimit="20" stroke-width="2" d="M519 94.5a4.5 4.5 0 1 1-9 0 4.5 4.5 0 0 1 9 0z" clip-path="url(&quot;#ap8uj&quot;)"/></g><g><path fill="#ff3f3f" d="M519 344.5a4.5 4.5 0 1 1-9 0 4.5 4.5 0 0 1 9 0z"/><path fill="none" stroke="#000" stroke-miterlimit="20" stroke-width="2" d="M519 344.5a4.5 4.5 0 1 1-9 0 4.5 4.5 0 0 1 9 0z" clip-path="url(&quot;#ap8uk&quot;)"/></g><g><path fill="#ff3f3f" d="M15 344.5a4.5 4.5 0 1 1-9 0 4.5 4.5 0 0 1 9 0z"/><path fill="none" stroke="#000" stroke-miterlimit="20" stroke-width="2" d="M15 344.5a4.5 4.5 0 1 1-9 0 4.5 4.5 0 0 1 9 0z" clip-path="url(&quot;#ap8ul&quot;)"/></g><g><path fill="#ff3f3f" d="M15 94.5a4.5 4.5 0 1 1-9 0 4.5 4.5 0 0 1 9 0z"/><path fill="none" stroke="#000" stroke-miterlimit="20" stroke-width="2" d="M15 94.5a4.5 4.5 0 1 1-9 0 4.5 4.5 0 0 1 9 0z" clip-path="url(&quot;#ap8um&quot;)"/></g></g><g><g><g><g><path fill="#f96a00" d="M466.48 138.174V31.52h60.748l23.77 23.701v82.953z"/><path fill="none" stroke="#000" stroke-miterlimit="20" stroke-width="2" d="M466.48 138.174v0V31.52v0h60.748v0l23.77 23.701v82.953z" clip-path="url(&quot;#ap8un&quot;)"/></g><g><path d="M551.004 73.781L525.85 56.676l25.154-1.006z"/></g><g/></g><g><g><path fill="#00b082" d="M400.07 156.284V49.63h60.748l23.77 23.701v82.953z"/><path fill="none" stroke="#000" stroke-miterlimit="20" stroke-width="2" d="M400.07 156.284v0V49.63v0h60.748v0l23.77 23.701v82.953z" clip-path="url(&quot;#ap8uo&quot;)"/></g><g><path d="M484.594 91.891L459.44 74.786l25.154-1.006z"/></g><g/></g><g><g><path fill="#f5e901" d="M436.3 210.624V103.97h60.748l23.77 23.701v82.953z"/><path fill="none" stroke="#000" stroke-miterlimit="20" stroke-width="2" d="M436.3 210.624v0V103.97v0h60.748v0l23.77 23.701v82.953z" clip-path="url(&quot;#ap8up&quot;)"/></g><g><path d="M520.814 146.221l-25.154-17.105 25.154-1.006z"/></g><g/></g></g><g><path fill="#fff" d="M351.5 0l4.842 19.615a11 11 0 0 0 8.043 8.043L384 32.5l-19.615 4.842a11 11 0 0 0-8.043 8.043L351.5 65l-4.842-19.615a11 11 0 0 0-8.043-8.043L319 32.5l19.615-4.842a11 11 0 0 0 8.043-8.043z"/><path fill="none" stroke="#000" stroke-miterlimit="20" stroke-width="2" d="M351.5 0v0l4.842 19.615a11 11 0 0 0 8.043 8.043L384 32.5v0l-19.615 4.842a11 11 0 0 0-8.043 8.043L351.5 65v0l-4.842-19.615a11 11 0 0 0-8.043-8.043L319 32.5v0l19.615-4.842a11 11 0 0 0 8.043-8.043z" clip-path="url(&quot;#ap8uq&quot;)"/></g><g><path fill="#f85aff" d="M373.5 62l2.07 8.387a11 11 0 0 0 8.043 8.043L392 80.5l-8.387 2.07a11 11 0 0 0-8.043 8.043L373.5 99l-2.07-8.387a11 11 0 0 0-8.043-8.043L355 80.5l8.387-2.07a11 11 0 0 0 8.043-8.043z"/><path fill="none" stroke="#000" stroke-miterlimit="20" stroke-width="2" d="M373.5 62v0l2.07 8.387a11 11 0 0 0 8.043 8.043L392 80.5v0l-8.387 2.07a11 11 0 0 0-8.043 8.043L373.5 99v0l-2.07-8.387a11 11 0 0 0-8.043-8.043L355 80.5v0l8.387-2.07a11 11 0 0 0 8.043-8.043z" clip-path="url(&quot;#ap8ur&quot;)"/></g></g></g></g></svg>